<svg id="diagram" xmlns="http://www.w3.org/2000/svg" xmlns:xlink="http://www.w3.org/1999/xlink" viewBox="0 0 1489.98 611.94"><defs><style>.cls-1,.cls-2,.cls-3,.cls-4,.cls-5,.cls-6{fill:none;stroke:#fff;stroke-miterlimit:10;}.cls-2,.cls-3,.cls-4{stroke-width:0.5px;}.cls-3,.cls-5{stroke-dasharray:0 0;}.cls-4,.cls-6{stroke-dasharray:11.92 8.93 0 0;}.cls-7{font-size:20px;fill:#fff;font-family:Montserrat-Light, Montserrat;font-weight:300;}.cls-8{letter-spacing:-0.01em;}.cls-9{letter-spacing:-0.01em;}.cls-10{letter-spacing:-0.01em;}.cls-11{fill:#2cffea;}.cls-12{letter-spacing:-0.02em;}</style></defs><g id="left"><line class="cls-1" x1="71.36" y1="9.59" x2="71.36" y2="548.53"/></g><g id="_3" data-name="3"><line class="cls-2" x1="71.77" y1="9.53" x2="77.77" y2="9.53"/><line class="cls-3" x1="86.7" y1="9.53" x2="86.71" y2="9.53"/><line class="cls-4" x1="86.71" y1="9.53" x2="1483.98" y2="9.53"/><line class="cls-2" x1="1483.98" y1="9.53" x2="1489.98" y2="9.53"/></g><g id="_2" data-name="2"><line class="cls-1" x1="70.98" y1="189.03" x2="76.98" y2="189.03"/><line class="cls-5" x1="85.91" y1="189.03" x2="85.92" y2="189.03"/><line class="cls-6" x1="85.92" y1="189.03" x2="1483.19" y2="189.03"/><line class="cls-1" x1="1483.19" y1="189.03" x2="1489.19" y2="189.03"/></g><g id="_1" data-name="1"><line class="cls-2" x1="70.98" y1="368.53" x2="76.98" y2="368.53"/><line class="cls-3" x1="85.91" y1="368.53" x2="85.92" y2="368.53"/><line class="cls-4" x1="85.92" y1="368.53" x2="1483.19" y2="368.53"/><line class="cls-2" x1="1483.19" y1="368.53" x2="1489.19" y2="368.53"/></g><g id="_0" data-name="0"><line class="cls-2" x1="71.77" y1="548.03" x2="77.77" y2="548.03"/><line class="cls-3" x1="86.7" y1="548.03" x2="86.71" y2="548.03"/><line class="cls-4" x1="86.71" y1="548.03" x2="1483.98" y2="548.03"/><line class="cls-2" x1="1483.98" y1="548.03" x2="1489.98" y2="548.03"/></g><text class="cls-7" transform="translate(215.47 588.42)">Ap<tspan class="cls-8" x="27.6" y="0">r</tspan><tspan x="35.3" y="0">il</tspan></text><text class="cls-7" transform="translate(0.09 550)">-50%</text><text class="cls-7" transform="translate(0 373)"><tspan class="cls-9">-</tspan><tspan x="7.4" y="0">2</tspan><tspan class="cls-10" x="18.66" y="0">5</tspan><tspan x="29.62" y="0">%</tspan></text><text class="cls-7" transform="translate(19 194)">0%</text><text class="cls-7" transform="translate(14 17)">2<tspan class="cls-10" x="11.26" y="0">5</tspan><tspan x="22.22" y="0">%</tspan></text><g id="rect_apr"><rect id="apr" class="cls-11" x="191.14" y="186.94" width="99.55" height="267.01"/><g id="apr-2" data-name="apr"><use transform="translate(154.98 153.03)" xlink:href="#image-2"/></g></g><g id="rect_may"><rect id="may" class="cls-11" x="406.57" y="188.35" width="99.55" height="267.01"/><g id="may-2" data-name="may"><use transform="translate(370.98 154.03)" xlink:href="#image"/></g></g><g id="rect_jun"><rect id="may-3" data-name="may" class="cls-11" x="622.5" y="187.76" width="99.55" height="267.01"/><g id="may-4" data-name="may"><use transform="translate(586.98 154.03)" xlink:href="#image"/></g></g><g id="rect_jul"><rect id="may-5" data-name="may" class="cls-11" x="840.43" y="188.17" width="99.55" height="267.01"/><g id="may-6" data-name="may"><use transform="translate(804.98 154.03)" xlink:href="#image"/></g></g><g id="rect_aug"><rect id="may-7" data-name="may" class="cls-11" x="1055.36" y="187.58" width="99.55" height="267.01"/><g id="may-8" data-name="may"><use transform="translate(1018.98 154.03)" xlink:href="#image-2"/></g></g><g id="rect_sep"><rect id="may-9" data-name="may" class="cls-11" x="1270.8" y="187.99" width="99.55" height="267.01"/><g id="may-10" data-name="may"><use transform="translate(1234.98 154.03)" xlink:href="#image"/></g></g><text class="cls-7" transform="translate(435.78 588)">Mai</text><text class="cls-7" transform="translate(651.81 588)">Juni</text><text class="cls-7" transform="translate(870.5 588)">Juli</text><text class="cls-7" transform="translate(1066.4 588)"><tspan class="cls-10">A</tspan><tspan x="13.9" y="0">ugust</tspan></text><text class="cls-7" transform="translate(1260.67 588)">Sep<tspan class="cls-12" x="37.62" y="0">t</tspan><tspan x="45.2" y="0">ember</tspan></text></svg>