<svg xmlns="http://www.w3.org/2000/svg" viewBox="0 0 768 768"><defs><style>.cls-1{fill:none;}.cls-2{fill:#273447;}</style></defs><g id="Ebene_2" data-name="Ebene 2"><rect class="cls-1" width="768" height="768"/></g><g id="beef"><path class="cls-2" d="M532.42,248.88s-4.46,3.83-4-23.31a24,24,0,0,1,2.67-10.82c1.45-2.72,3.52-5.1,6.2-4.62,5.85,1.05,6.83,1.05,7.8,10.48s1.95,20.94,13.65,19.89,45.83,1.05,45.83,1.05,10.73,2.1,11.7-12.57,1-15.71,6.83-18.85,10.72,0,10.72,12.57,6.83,30.37-19.5,41.89l47.78,60.74s16.58,17.81,6.83,29.33c-11.48,13.55-10.73,23-33.15,11.52-15-7.73-58.51-40.85-82.89,25.13,0,0-3.9,20.95-5.85,34.56s-7.8,41.89-32.17,49.22V589.23c0,9.26-7,16.77-15.61,16.77h0c-8.08,0-14.62-7-14.62-15.7v-110l-16.58-1.05V589.9c0,8.89-6.71,16.1-15,16.1h-.89c-7.39,0-13.38-6.44-13.38-14.37V460.43s-12.68,18.85-65.33,18.85-166.74-2.09-166.74-2.09l-22.43,55.5v57c0,9-6.8,16.31-15.18,16.31h0c-7.77,0-14.07-6.76-14.07-15.11V306.48s1-26.18,5.85-32.46c0,0-18.52-12.57-19.5,29.32s-2.92,115.2-2.92,115.2,0,6.28,5.85,32.46c7.27,32.54-11.7,28.28-11.7,28.28s-21.46,4.19-11.7-30.37c6.83-24.24,6.82-30.37,6.82-30.37l-2.92-121.48s-7.81-44,46.8-46.08S532.42,248.88,532.42,248.88Z"/><path class="cls-2" d="M215.52,487.66h87.75s6.83,53.41-60.45,49.22l-1.52,53.94c-.24,8.46-6.69,15.18-14.57,15.18h0c-7.81,0-14.14-6.8-14.14-15.19v-66.5l-6.82-12.56Z"/><path class="cls-2" d="M629.05,264.44l8.76-6.51a3,3,0,0,1,2.07-.61c4.74.37,22.45,3.07,26.7,22.91a3.56,3.56,0,0,1-1.24,3.55c-3.09,2.41-10.21,7-18.5,6.13a3.2,3.2,0,0,1-2.11-1.12L628.5,269.61A3.62,3.62,0,0,1,629.05,264.44Z"/></g></svg>