<svg xmlns="http://www.w3.org/2000/svg" viewBox="0 0 768 768"><defs><style>.cls-1{fill:none;}.cls-2{fill:#273447;}</style></defs><g id="Ebene_2" data-name="Ebene 2"><rect class="cls-1" width="768" height="768"/></g><g id="reuse"><path class="cls-2" d="M244.61,290.86S307,192.08,420.32,216.7c119.39,25.93,141.79,141.19,141.79,141.19l-29.28-27.06-31.54,39.46,90.11,84.56L677,360.14l-37.17-34.95-25.91,30.44S597,218.08,461.87,173s-229.78,51.87-229.78,51.87-21.4,22.54-34.91,42.84Z"/><path class="cls-2" d="M536.84,477.74s-61.37,97.77-174.71,73.16C242.74,525,221.34,409.71,221.34,409.71l29.28,27.06,31.54-39.46-90.11-84.56-85.6,94.7,37.17,35L169.53,412s16.89,137.55,152,182.65,229.78-51.86,229.78-51.86,21.4-22.55,34.92-42.84Z"/></g></svg>